<svg xmlns="http://www.w3.org/2000/svg" viewBox="0 0 1572.8 769.15"><defs><style>.cls-1{fill:#fff;}.cls-2{fill:#f2ff43;}.cls-3{fill:#f33;}</style></defs><g id="Layer_2" data-name="Layer 2"><g id="Layer_1-2" data-name="Layer 1"><path class="cls-1" d="M164.43,415.61,150.11,194.15l-22.62-7.54L135.9,19.54,148.25,15C175,5,200.85,0,225.23,0c3.4,0,6.83.1,10.19.29C263.21,1.91,287.84,8.87,308.61,21a124.82,124.82,0,0,1,48.84,51.13c11.11,21.59,15.25,45.87,12.31,72.15-2.85,25.42-13.48,52.48-31.59,80.44-16.1,24.85-39.88,49.82-70.73,74.27l15.47,116.62Z"/><path d="M173.81,405.61,159.65,186.79l-21.79-7.26,7.7-152.91,6.17-2.29C177.32,14.82,202,10,225.23,10c3.21,0,6.45.09,9.61.28,26.21,1.52,49.33,8,68.73,19.36a114.86,114.86,0,0,1,45,47.07c10.19,19.81,14,42.17,11.26,66.46-2.67,23.86-12.78,49.47-30,76.12-16.28,25.12-40.82,50.45-73,75.35l14.72,111Z"/><path class="cls-2" d="M260.08,395.61h-76.9l-14-216.18-21-7,7-138.74q41.94-15.59,79.05-13.44t64.26,18a104.48,104.48,0,0,1,41.14,43q14,27.15,10.21,60.76t-28.5,71.79Q296.65,252,246.1,290.21Zm-21-216.18q8.05-2.67,11.83-11.82a53.43,53.43,0,0,0,3.76-20.44,64.2,64.2,0,0,0-3.76-21.78q-3.78-10.48-11.83-15.86Z"/><path class="cls-1" d="M473.43,417.83l.73,10.95H369.4l5-175.6-10.19-5.1V122.52l13.11-4.81c20.48-7.5,40.36-11.31,59.09-11.31.86,0,1.72,0,2.57,0,19.93.37,37.89,4.34,53.37,11.8A103.13,103.13,0,0,1,531.5,150.6,95.23,95.23,0,0,1,549.4,199c1.54,17.37-1.46,36.09-8.9,55.63-5.61,14.71-14.33,29.71-26,44.69l60.77,76.22-86.79,69.43Z"/><path d="M460.47,374l3,44.78H379.69l4.9-171.69-10.36-5.19V129.51l6.56-2.41c19.37-7.1,38.09-10.7,55.64-10.7.8,0,1.6,0,2.39,0,18.48.34,35,4,49.22,10.81a93.35,93.35,0,0,1,35.38,29.25,85.45,85.45,0,0,1,16,43.35c1.4,15.85-1.39,33.06-8.29,51.19-6,15.77-15.9,32-29.43,48.22l59.54,74.66L491.5,429.72Z"/><path class="cls-2" d="M494.48,414.53l-47-84.37,5.28,78.62H390L394.77,241l-10.54-5.27V136.49Q413,126,438.64,126.42t45.06,9.83a82.82,82.82,0,0,1,31.63,26.13,75.18,75.18,0,0,1,14.15,38.35q1.9,21.57-7.67,46.74T488.73,299l58.48,73.34Zm-47-163q5.76,0,9.35-5.75a30.62,30.62,0,0,0,4.32-13.66,32.55,32.55,0,0,0-2.64-15.82,22.64,22.64,0,0,0-11-11.75Z"/><polygon class="cls-1" points="572.17 438.29 561.44 166.85 679.29 159.71 663.99 438.29 572.17 438.29"/><polygon points="581.78 428.29 571.82 176.24 668.69 170.37 654.52 428.29 581.78 428.29"/><path class="cls-2" d="M582.2,185.63l75.89-4.6-13,237.26H591.4Z"/><polygon class="cls-1" points="803.23 403.42 803.23 416.49 677.21 423.83 700.33 122.68 786.79 114.89 813.96 187.34 843.43 122.21 929.69 114.44 953.01 423.76 826.1 416.74 818.69 432.54 803.23 403.42"/><polygon points="709.66 131.88 780.1 125.53 813.09 213.51 850.13 131.65 920.48 125.31 942.18 413.14 831.86 407.05 834.08 376.18 818.14 410.18 793.23 363.27 793.23 407.06 688.06 413.18 709.66 131.88"/><path class="cls-2" d="M931.35,402.53l-88.79-4.91,5.36-74.51-30.34,64.7-34.35-64.7v74.51l-84.33,4.91L719,141.09l54.43-4.91,38.82,103.5,44.61-98.59,54.43-4.91Z"/><polygon class="cls-1" points="940.8 409.55 989.35 85.05 1098.82 92.68 1159.76 416.38 1058.94 416.38 1058.94 417.83 940.8 409.55"/><polygon points="952.3 400.33 997.87 95.67 1090.42 102.12 1147.7 406.38 1051.12 406.38 1048.94 373.18 1048.94 407.1 952.3 400.33"/><path class="cls-2" d="M1082,111.56l53.62,284.82h-75.16L1055.22,316l-16.28,5.74v74.68l-75.15-5.27,42.6-284.82Zm-43.08,145h16.28l-11-43.08Z"/><polygon class="cls-1" points="1165.1 29.29 1306.93 29.29 1288.38 243.97 1370.72 224.84 1353.61 394.41 1157.97 417.43 1165.1 29.29"/><polygon points="1174.92 39.29 1296.03 39.29 1277.23 256.83 1359.37 237.74 1344.46 385.42 1168.18 406.16 1174.92 39.29"/><path class="cls-2" d="M1285.12,49.29l-19,220.4,81.92-19-12.69,125.77-156.93,18.47,6.35-345.6Z"/><path class="cls-1" d="M31.24,750.15,19.2,564,0,557.56,7.28,413.13l12.34-4.59c22.71-8.44,44.77-12.72,65.55-12.72,2.93,0,5.86.09,8.73.25,23.77,1.38,44.87,7.36,62.7,17.77A107.57,107.57,0,0,1,198.72,458c9.6,18.65,13.18,39.59,10.65,62.24-2.44,21.77-11.51,44.9-26.94,68.73C169,609.61,149.38,630.37,124,650.69l13.19,99.46Z"/><path d="M40.62,740.15,28.74,556.6l-18.37-6.12,6.56-130.27,6.18-2.29c21.59-8,42.47-12.1,62.06-12.1,2.73,0,5.47.08,8.15.24,22.19,1.29,41.78,6.81,58.24,16.42a97.73,97.73,0,0,1,38.27,40c8.68,16.87,11.91,35.89,9.6,56.55C197.16,539.3,188.62,561,174,583.48c-13.59,21-34,42.11-60.72,62.88l12.44,93.79Z"/><path class="cls-3" d="M114.34,730.14H50l-11.7-180.9-17.55-5.85,5.85-116.1Q61.69,414.24,92.74,416t53.78,15.08a87.42,87.42,0,0,1,34.42,36q11.7,22.72,8.55,50.85T165.64,578q-20.7,32-63,63.9ZM96.79,549.24q6.75-2.25,9.9-9.9a44.53,44.53,0,0,0,3.15-17.1A53.51,53.51,0,0,0,106.69,504a25.86,25.86,0,0,0-9.9-13.28Z"/><path class="cls-1" d="M303.53,739.79l.32,4.67H204.09l4.64-162.21-9.35-4.67V459.93l13.12-4.81c19-7,37.5-10.5,54.91-10.5.81,0,1.61,0,2.4,0,18.57.35,35.32,4.06,49.78,11a96.42,96.42,0,0,1,36.6,30.28A89.24,89.24,0,0,1,373,531.24c1.44,16.22-1.35,33.68-8.29,51.9-5.09,13.36-12.93,27-23.36,40.54l56.14,70.4-82.58,66.07Z"/><path d="M290.57,696l2.58,38.51H214.38l4.52-158.3-9.52-4.76V466.91l6.56-2.4c17.91-6.56,35.23-9.89,51.47-9.89.75,0,1.48,0,2.22,0,17.12.32,32.47,3.7,45.62,10a86.66,86.66,0,0,1,32.86,27.16A79.48,79.48,0,0,1,363,532.12c1.3,14.71-1.28,30.67-7.67,47.46-5.51,14.45-14.51,29.25-26.81,44.1l54.89,68.83L317.85,745Z"/><path class="cls-3" d="M320.84,729.76l-43.23-77.64,4.85,72.34H224.67l4.41-154.39-9.7-4.86V473.9q26.46-9.69,50.07-9.26t41.46,9a76.34,76.34,0,0,1,29.12,24A69.21,69.21,0,0,1,353,533q1.75,19.86-7.06,43t-30.44,47.42l53.82,67.5Zm-43.23-150q5.29,0,8.6-5.29a28.25,28.25,0,0,0,4-12.57,29.89,29.89,0,0,0-2.43-14.56,20.86,20.86,0,0,0-10.14-10.81Z"/><polygon class="cls-1" points="380.55 753.15 369.82 481.7 487.68 474.56 472.37 753.15 380.55 753.15"/><polygon points="390.17 743.14 380.2 491.09 477.07 485.22 462.91 743.14 390.17 743.14"/><path class="cls-3" d="M390.58,500.48l75.89-4.6-13,237.26H399.78Z"/><polygon class="cls-1" points="473.23 755.15 496.2 445.29 681.63 445.29 687.25 755.15 473.23 755.15"/><polygon points="598.24 743.78 597.06 741.4 597.06 743.78 485.47 743.78 506.76 456.66 579.02 456.66 589.14 482.02 589.14 456.66 670.47 456.66 675.67 743.78 598.24 743.78"/><path class="cls-3" d="M571.32,468l29.19,73.18V468h58.8l4.79,264.4H605.3l-19.6-39.64v39.64h-88L517.31,468Z"/><polygon class="cls-1" points="732.74 755.15 747.64 568.69 686.97 573.67 694.53 451.23 907.87 445.05 900.49 571.85 850.09 571.85 850.09 755.15 732.74 755.15"/><polygon points="743.57 745.14 758.55 557.76 697.66 562.76 703.95 460.96 897.25 455.36 891.05 561.85 840.09 561.85 840.09 745.14 743.57 745.14"/><path class="cls-3" d="M881.62,551.85H830.09V735.14H754.4l15.05-188.31-61.1,5,5-81.16,173.26-5Z"/><polygon class="cls-1" points="918.52 755.15 905.85 434.84 1039.65 426.73 1021.61 755.15 918.52 755.15"/><polygon points="928.13 745.14 916.23 444.23 1029.05 437.39 1012.14 745.14 928.13 745.14"/><path class="cls-3" d="M926.61,453.62l91.84-5.56-15.77,287.08H937.74Z"/><polygon class="cls-1" points="1032.15 755.15 1057.49 413.29 1257.83 413.29 1264.02 755.15 1032.15 755.15"/><polygon points="1170.31 745.14 1164.14 732.68 1164.14 745.14 1042.92 745.14 1066.78 423.29 1144.51 423.29 1161.05 464.76 1161.05 423.29 1248.01 423.29 1253.84 745.14 1170.31 745.14"/><path class="cls-3" d="M1137.73,433.29l33.32,83.55V433.29h67.13l5.47,301.85h-67.13l-22.38-45.25v45.25H1053.69l22.38-301.85Z"/><path class="cls-1" d="M1417.89,769.15a130.77,130.77,0,0,1-62.2-15.42,155.33,155.33,0,0,1-48.62-40.64,196.88,196.88,0,0,1-31.5-57.83A208.41,208.41,0,0,1,1264,586a199.9,199.9,0,0,1,11.59-68.12c7.7-21.33,18.38-40.23,31.74-56.17a152.08,152.08,0,0,1,48.78-38.64,136.77,136.77,0,0,1,61.74-14.38c30.82,0,59.26,9.26,84.51,27.52,24.68,17.87,43.85,42.05,57,71.88l9.28,21.08-6.06,1.7,2.62,7.29c3.83,10.63,6,19.7,6.71,27.73.58,6.76.88,13.53.88,20.11v30.83l-.23,1.49a192.41,192.41,0,0,1-18.76,58.89,188.3,188.3,0,0,1-34.33,47.71,156.14,156.14,0,0,1-46.78,32.37A133.52,133.52,0,0,1,1417.89,769.15Z"/><path d="M1417.89,759.15a121,121,0,0,1-57.5-14.24,145.48,145.48,0,0,1-45.5-38A187.07,187.07,0,0,1,1285,652a198.36,198.36,0,0,1-11-66,189.77,189.77,0,0,1,11-64.72c7.3-20.22,17.39-38.11,30-53.15A142.14,142.14,0,0,1,1360.62,432a126.87,126.87,0,0,1,57.27-13.32,131.65,131.65,0,0,1,78.64,25.63c23.22,16.8,41.29,39.61,53.69,67.8l4.63,10.53-43.69,12.29h42.26l2.38,6.61c3.53,9.8,5.54,18,6.16,25.2.55,6.47.83,12.95.83,19.25v30.08l-.11.74a182.43,182.43,0,0,1-17.78,55.84,178.12,178.12,0,0,1-32.49,45.18,146,146,0,0,1-43.79,30.32A123.65,123.65,0,0,1,1417.89,759.15Zm-17.32-145.56a48.55,48.55,0,0,0,8.12,5.4,32.64,32.64,0,0,0,15.6,3.91c4,0,8.79-1.92,14.35-5.72l.16-.11Zm-9.75-71c-6.26,8.14-9.32,18.55-9.32,31.64A46.63,46.63,0,0,0,1385,592a58,58,0,0,0,5.81,10.8Zm55.57-7.69a14.78,14.78,0,0,0-6.13-4.84c-6-2.63-11.35-4-16-4a40,40,0,0,0-25.83,8.8Z"/><path class="cls-3" d="M1552,567.58q.81,9.33.8,18.4V615.3A171.8,171.8,0,0,1,1536,668.09a167.68,167.68,0,0,1-30.66,42.66,135.53,135.53,0,0,1-40.8,28.26,113.09,113.09,0,0,1-46.65,10.13,110.41,110.41,0,0,1-52.79-13.06,135,135,0,0,1-42.4-35.46q-17.87-22.39-28.26-52A187.65,187.65,0,0,1,1284.05,586a179.29,179.29,0,0,1,10.39-61.33q10.41-28.78,28.26-50.12a131.63,131.63,0,0,1,42.4-33.59,116.3,116.3,0,0,1,52.79-12.27q40,0,72.78,23.73t50.39,63.72l-81.58,22.93q-4.27-13.32-15.2-18.13t-20-4.8A50.46,50.46,0,0,0,1387,531.85q-15.48,15.74-15.46,42.4a56.23,56.23,0,0,0,4.26,21.59,66.57,66.57,0,0,0,11.47,18.66A57.69,57.69,0,0,0,1404,627.83a42.67,42.67,0,0,0,20.27,5.07q9.06,0,20-7.46t15.2-16.54l-58.66-5.33V544.92h145.57Q1551.19,558.25,1552,567.58Z"/><path d="M80.15,386.67a46.22,46.22,0,0,1-9.88-.76,12.17,12.17,0,0,1-6.84-5,16.52,16.52,0,0,1-2.93-10,18.38,18.38,0,0,1,2.5-9.87,12.5,12.5,0,0,1,6.35-5.48,28.42,28.42,0,0,1,9.24-1.17h32.73v11.9l-.77.26c.11.17.22.34.32.52a11.11,11.11,0,0,1,1.38,5.59,13.86,13.86,0,0,1-1.75,6.77,13.2,13.2,0,0,1-4.42,4.83,13.79,13.79,0,0,1-5.44,2,54.49,54.49,0,0,1-7.27.36Z"/><path class="cls-1" d="M80.51,357.09v11.57h-4a20,20,0,0,0-4.78.33,1.74,1.74,0,0,0-.14,3,13.68,13.68,0,0,0,4.23.38H97.14a13,13,0,0,0,3.94-.38,1.51,1.51,0,0,0,1-1.54,1.7,1.7,0,0,0-1.07-1.72,12.67,12.67,0,0,0-4.18-.45H91.5v2.33H84.74V357.09h23.89v7.27l-3.19,1.07a8.16,8.16,0,0,1,3.09,3,8.36,8.36,0,0,1,1,4.25,11,11,0,0,1-1.42,5.46,10.46,10.46,0,0,1-3.5,3.86,11.07,11.07,0,0,1-4.38,1.65,52.72,52.72,0,0,1-6.89.33H80.15a44.12,44.12,0,0,1-9.26-.69,9.49,9.49,0,0,1-5.29-3.94,13.84,13.84,0,0,1-2.4-8.42,15.63,15.63,0,0,1,2.09-8.44,9.82,9.82,0,0,1,5-4.37,26.15,26.15,0,0,1,8.34-1Z"/><path d="M69.46,355.8v-31h41.86v16.65a11.13,11.13,0,0,1,.66,3.88,11.39,11.39,0,0,1-1.2,5.42,8.3,8.3,0,0,1-3.43,3.53,11.37,11.37,0,0,1-4,1.28c-1.17.14-3.33.21-6.61.21Z"/><path class="cls-1" d="M72.16,327.52h36.47v11.3l-3-.2a7.66,7.66,0,0,1,2.76,2.85,7.94,7.94,0,0,1,.93,3.89,8.86,8.86,0,0,1-.88,4.15,5.73,5.73,0,0,1-2.34,2.43,8.6,8.6,0,0,1-3,1c-1,.12-3.14.19-6.28.19H72.16V342H97a25.44,25.44,0,0,0,5.06-.26c.53-.17.8-.64.8-1.41s-.28-1.32-.83-1.47a30.77,30.77,0,0,0-5.3-.24H72.16Z"/><path d="M85.76,326.56a25.17,25.17,0,0,1-8.91-1.28,11.81,11.81,0,0,1-5.93-5.07,16.72,16.72,0,0,1-2.12-8.71,19.52,19.52,0,0,1,1.32-7.45,12.79,12.79,0,0,1,8.34-7.69,25,25,0,0,1,6.5-.64h8.93a39.1,39.1,0,0,1,7.79.56,12.86,12.86,0,0,1,5.42,2.66,12.24,12.24,0,0,1,3.76,5.31A19.44,19.44,0,0,1,112,311a23.72,23.72,0,0,1-.94,7.06,11.17,11.17,0,0,1-3.25,5.19,12.4,12.4,0,0,1-5,2.59,31.69,31.69,0,0,1-7.65.69Z"/><path class="cls-1" d="M85,298.42h8.93a37.83,37.83,0,0,1,7.22.49A10.17,10.17,0,0,1,105.4,301a9.7,9.7,0,0,1,2.94,4.16,16.71,16.71,0,0,1,1,5.84,20.79,20.79,0,0,1-.82,6.24,8.49,8.49,0,0,1-2.44,4,9.55,9.55,0,0,1-4,2,29.34,29.34,0,0,1-7,.61H85.76a22.89,22.89,0,0,1-7.94-1.1,9.12,9.12,0,0,1-4.59-4,13.88,13.88,0,0,1-1.73-7.31,16.77,16.77,0,0,1,1.11-6.42A10.11,10.11,0,0,1,79.19,299,23.34,23.34,0,0,1,85,298.42Zm-2.75,11.1a12.26,12.26,0,0,0-3.53.3,1.24,1.24,0,0,0-.72,1.29,1.3,1.3,0,0,0,.72,1.32,11.19,11.19,0,0,0,3.53.33H98.68a10.61,10.61,0,0,0,3.36-.33,1.49,1.49,0,0,0,.07-2.59,9.27,9.27,0,0,0-3.08-.32Z"/><polygon points="61.44 297.46 61.44 280.97 69.46 280.96 69.46 267.19 86.74 272.56 111.32 266 111.32 297.46 61.44 297.46"/><path class="cls-1" d="M72.16,270.85l14.52,4.51,21.95-5.85v10.67l-15.9,3.47h15.9v11.1H64.13v-11.1H82.81l-10.65-3.47Z"/><path d="M69.46,270.72v-31h41.86V256.4a11.07,11.07,0,0,1,.66,3.87,11.36,11.36,0,0,1-1.2,5.42,8.38,8.38,0,0,1-3.43,3.54,11.37,11.37,0,0,1-4,1.28c-1.17.14-3.33.21-6.61.21Z"/><path class="cls-1" d="M72.16,242.44h36.47v11.29l-3-.19a7.71,7.71,0,0,1,2.76,2.84,8,8,0,0,1,.93,3.89,8.83,8.83,0,0,1-.88,4.15,5.73,5.73,0,0,1-2.34,2.43,8.4,8.4,0,0,1-3,1q-1.57.19-6.28.19H72.16v-11.1H97a26.31,26.31,0,0,0,5.06-.26c.53-.18.8-.65.8-1.42s-.28-1.31-.83-1.47a32.51,32.51,0,0,0-5.3-.23H72.16Z"/><path d="M61.44,230.9V216.55a29.3,29.3,0,0,1,.85-8,10.69,10.69,0,0,1,2.91-5.05,10.07,10.07,0,0,1,4.61-2.37,32.55,32.55,0,0,1,6.77-.52h3.88a18.17,18.17,0,0,1,7.31,1.12,8.65,8.65,0,0,1,4.36,4.59,17.86,17.86,0,0,1,1.27,7.24v.41h17.92v17Z"/><path class="cls-1" d="M64.13,228.2V216.55a27.56,27.56,0,0,1,.74-7.27A8.09,8.09,0,0,1,67,205.46a7.31,7.31,0,0,1,3.39-1.73,30.5,30.5,0,0,1,6.17-.46h3.88a16.25,16.25,0,0,1,6.21.88,6,6,0,0,1,3,3.23,15.25,15.25,0,0,1,1,6.15v3.1h17.92V228.2Zm7.61-11.57H83.07c0-.33,0-.61,0-.85a2.68,2.68,0,0,0-.78-2.21,5.7,5.7,0,0,0-3.26-.62H75.4c-1.52,0-2.51.24-3,.71A4.49,4.49,0,0,0,71.74,216.63Z"/><path d="M69.46,203V186.22l.19,0a10.19,10.19,0,0,1-.84-3.45l-.19-2.88H87v2.7a6.78,6.78,0,0,0,.46,3.13c.23.4.42.45.55.48a37.44,37.44,0,0,0,6.18.26h17.1V203Z"/><path class="cls-1" d="M72.16,189.18l4.79.44q-5.15-2.43-5.45-7H84.33a9.32,9.32,0,0,0,.83,4.48,3.46,3.46,0,0,0,2.29,1.76,41.1,41.1,0,0,0,6.77.33h14.41v11.1H72.16Z"/><path d="M84.74,183.16a20.44,20.44,0,0,1-8.68-1.55,11.52,11.52,0,0,1-5.5-5.46,17.59,17.59,0,0,1-1.76-8,17.85,17.85,0,0,1,2.14-9.07,12.47,12.47,0,0,1,6-5.39,24.39,24.39,0,0,1,9.27-1.43h9.89a26.56,26.56,0,0,1,5.81.5,13.2,13.2,0,0,1,4.89,2.47,12.34,12.34,0,0,1,3.94,5.06,18,18,0,0,1,1.25,7.09,20.24,20.24,0,0,1-1.19,7.16,12.65,12.65,0,0,1-3.57,5.3,12.84,12.84,0,0,1-4.94,2.62,27.42,27.42,0,0,1-6.9.67Z"/><path class="cls-1" d="M91,155v14.37h7.88a8.68,8.68,0,0,0,3.19-.36,1.37,1.37,0,0,0,.72-1.37,1.67,1.67,0,0,0-1-1.69,10.46,10.46,0,0,0-3.67-.43H93.4V155h2.69a24.48,24.48,0,0,1,5.2.42,10.55,10.55,0,0,1,3.87,2,9.52,9.52,0,0,1,3.09,4,15.28,15.28,0,0,1,1,6,17.43,17.43,0,0,1-1,6.21,10,10,0,0,1-2.79,4.19,10.12,10.12,0,0,1-3.9,2.08,25.53,25.53,0,0,1-6.2.57H84.74a18.13,18.13,0,0,1-7.54-1.29A8.86,8.86,0,0,1,73,174.94a14.91,14.91,0,0,1-1.47-6.76,15.14,15.14,0,0,1,1.77-7.71,9.79,9.79,0,0,1,4.7-4.26A22.12,22.12,0,0,1,86.2,155ZM85.1,166.12H82.43a13.53,13.53,0,0,0-3.65.3,1.19,1.19,0,0,0-.82,1.24c0,.77.23,1.24.7,1.43a14.73,14.73,0,0,0,3.77.27H85.1Z"/><path d="M82.27,154.88c-3.41,0-6-.49-7.75-1.49a10.13,10.13,0,0,1-4.39-5.26,19.65,19.65,0,0,1-1.33-7.43,21.14,21.14,0,0,1,1.08-7.09,12.16,12.16,0,0,1,3.17-5,8.94,8.94,0,0,1,4-2.27,22.21,22.21,0,0,1,4.62-.36H86.5v5.56a14.9,14.9,0,0,1,3.7-4.39c1.88-1.36,4.38-2,7.65-2a17.53,17.53,0,0,1,7.94,1.45,10.3,10.3,0,0,1,4.73,5.15,18.53,18.53,0,0,1,1.46,7.64,20.62,20.62,0,0,1-1.55,8.32,10.55,10.55,0,0,1-4.83,5.47,18.15,18.15,0,0,1-8,1.41H93.12v-5.21a11.94,11.94,0,0,1-4.37,4.17A14.85,14.85,0,0,1,82.27,154.88Z"/><path class="cls-1" d="M83.81,128.69v9.84h-2a10.7,10.7,0,0,0-3.2.28c-.45.2-.67.68-.67,1.45a1.64,1.64,0,0,0,.61,1.4,3.09,3.09,0,0,0,1.86.47,9.11,9.11,0,0,0,2.46-.24,3.89,3.89,0,0,0,1.72-1.4,31,31,0,0,0,2.72-4.79c1.57-3.23,3.06-5.35,4.45-6.35a10.26,10.26,0,0,1,6.07-1.51,15.29,15.29,0,0,1,6.72,1.15,7.67,7.67,0,0,1,3.49,3.86,15.72,15.72,0,0,1,1.23,6.53,18,18,0,0,1-1.32,7.24,7.92,7.92,0,0,1-3.58,4.14,15.86,15.86,0,0,1-6.81,1.12H95.82V142h2.31a12.09,12.09,0,0,0,3.82-.37,1.43,1.43,0,0,0,.88-1.47,2,2,0,0,0-.59-1.65,4.48,4.48,0,0,0-2.49-.46q-2.61,0-3.27.6a50.52,50.52,0,0,0-3.9,6.46q-2.76,4.89-5,6a12.17,12.17,0,0,1-5.32,1.07q-4.36,0-6.44-1.15a7.49,7.49,0,0,1-3.21-3.92,16.91,16.91,0,0,1-1.12-6.41,18,18,0,0,1,.92-6.17,9.43,9.43,0,0,1,2.43-3.91,6.56,6.56,0,0,1,2.8-1.64,19.75,19.75,0,0,1,4-.29Z"/><path d="M84.74,127.89a20.45,20.45,0,0,1-8.68-1.54,11.5,11.5,0,0,1-5.5-5.47,17.59,17.59,0,0,1-1.76-8,17.85,17.85,0,0,1,2.14-9.07,12.4,12.4,0,0,1,6-5.38A24.19,24.19,0,0,1,86.2,97h9.89a26.66,26.66,0,0,1,5.81.49,13.2,13.2,0,0,1,4.89,2.47,12.4,12.4,0,0,1,3.94,5.06,18,18,0,0,1,1.25,7.09,20.34,20.34,0,0,1-1.19,7.17,12.61,12.61,0,0,1-3.57,5.29,12.84,12.84,0,0,1-4.94,2.62,27.42,27.42,0,0,1-6.9.67Z"/><path class="cls-1" d="M91,99.72v14.37h7.88a9,9,0,0,0,3.19-.35,1.39,1.39,0,0,0,.72-1.38,1.68,1.68,0,0,0-1-1.69,10.53,10.53,0,0,0-3.67-.42H93.4V99.72h2.69a23.72,23.72,0,0,1,5.2.43,10.51,10.51,0,0,1,3.87,2,9.58,9.58,0,0,1,3.09,4,15.28,15.28,0,0,1,1,6,17.43,17.43,0,0,1-1,6.21,9.68,9.68,0,0,1-6.69,6.27,25.44,25.44,0,0,1-6.2.58H84.74a18.13,18.13,0,0,1-7.54-1.29A8.93,8.93,0,0,1,73,119.67a14.91,14.91,0,0,1-1.47-6.76,15.17,15.17,0,0,1,1.77-7.71,9.79,9.79,0,0,1,4.7-4.26,22.12,22.12,0,0,1,8.23-1.22ZM85.1,110.85H82.43a13.53,13.53,0,0,0-3.65.3,1.2,1.2,0,0,0-.82,1.24c0,.77.23,1.25.7,1.43a14.73,14.73,0,0,0,3.77.27H85.1Z"/><path d="M69.46,98.79V81.94h0A11,11,0,0,1,68.8,78a10.26,10.26,0,0,1,1.88-6.28,8.65,8.65,0,0,1,4.89-3.34,32.93,32.93,0,0,1,7.5-.6h28.25v31Z"/><path class="cls-1" d="M72.16,84.8l3.36.19a8.39,8.39,0,0,1-3-2.95,8,8,0,0,1-1-4,7.67,7.67,0,0,1,1.34-4.67A6,6,0,0,1,76.24,71a30.91,30.91,0,0,1,6.83-.52h25.56v11.1H83.37a23.83,23.83,0,0,0-4.59.25c-.55.17-.82.62-.82,1.37a1.37,1.37,0,0,0,.94,1.49A24.12,24.12,0,0,0,84,85h24.66v11.1H72.16Z"/><path d="M70.34,71.17V68.78H64.6V52.26h5.74v-3H81.5v3H98.32c.73,0,1.29,0,1.72,0,0-.21,0-.46,0-.74v-2.7h11.27V56A33.41,33.41,0,0,1,111,61.9a8.45,8.45,0,0,1-2.12,4.17,7.52,7.52,0,0,1-4,2.35c-.8.17-2.38.36-7.45.36H81.5v2.39Z"/><path class="cls-1" d="M67.29,55H73V52h5.77v3H98.32c2.4,0,3.74-.12,4-.37s.41-1.28.41-3.09h5.89V56a31.91,31.91,0,0,1-.32,5.41,5.77,5.77,0,0,1-1.46,2.86,4.8,4.8,0,0,1-2.61,1.54,46.58,46.58,0,0,1-6.91.3H78.81v2.39H73V66.08H67.29Z"/><path d="M82.27,53c-3.41,0-6-.49-7.75-1.49a10.13,10.13,0,0,1-4.39-5.26,19.61,19.61,0,0,1-1.33-7.43,21.14,21.14,0,0,1,1.08-7.09,12.16,12.16,0,0,1,3.17-5,8.94,8.94,0,0,1,4-2.27,22.21,22.21,0,0,1,4.62-.36H86.5V29.7a14.9,14.9,0,0,1,3.7-4.39c1.88-1.36,4.38-2,7.65-2a17.53,17.53,0,0,1,7.94,1.45,10.3,10.3,0,0,1,4.73,5.15A18.53,18.53,0,0,1,112,37.53a20.62,20.62,0,0,1-1.55,8.32,10.55,10.55,0,0,1-4.83,5.47,18.15,18.15,0,0,1-8,1.41H93.12V47.52a11.94,11.94,0,0,1-4.37,4.17A14.85,14.85,0,0,1,82.27,53Z"/><path class="cls-1" d="M83.81,26.84v9.84h-2a10.24,10.24,0,0,0-3.2.29c-.45.19-.67.67-.67,1.44a1.64,1.64,0,0,0,.61,1.4,3.09,3.09,0,0,0,1.86.47A9.11,9.11,0,0,0,82.89,40a3.89,3.89,0,0,0,1.72-1.4,31,31,0,0,0,2.72-4.79c1.57-3.23,3.06-5.34,4.45-6.35A10.26,10.26,0,0,1,97.85,26a15.29,15.29,0,0,1,6.72,1.15A7.67,7.67,0,0,1,108.06,31a15.72,15.72,0,0,1,1.23,6.53A18,18,0,0,1,108,44.77a7.92,7.92,0,0,1-3.58,4.14A15.86,15.86,0,0,1,97.58,50H95.82V40.19h2.31a12.09,12.09,0,0,0,3.82-.37,1.43,1.43,0,0,0,.88-1.47,2,2,0,0,0-.59-1.65,4.48,4.48,0,0,0-2.49-.46q-2.61,0-3.27.6a51.38,51.38,0,0,0-3.9,6.46q-2.76,4.89-5,6a12.17,12.17,0,0,1-5.32,1.08q-4.36,0-6.44-1.16a7.49,7.49,0,0,1-3.21-3.92,16.91,16.91,0,0,1-1.12-6.41,18,18,0,0,1,.92-6.17,9.32,9.32,0,0,1,2.43-3.9,6.49,6.49,0,0,1,2.8-1.65,19.75,19.75,0,0,1,4-.29Z"/></g></g></svg>