<svg xmlns="http://www.w3.org/2000/svg" viewBox="0 0 1572.8 769.15"><defs><style>.cls-1{fill:#fff;}.cls-2{fill:#f2ff43;}.cls-3{fill:#f33;}</style></defs><g id="Layer_2" data-name="Layer 2"><g id="Layer_1-2" data-name="Layer 1"><path class="cls-1" d="M164.43,415.61,150.11,194.15l-22.62-7.54L135.9,19.54,148.25,15C175,5,200.85,0,225.23,0c3.4,0,6.83.1,10.19.29C263.21,1.91,287.84,8.87,308.61,21a124.82,124.82,0,0,1,48.84,51.13c11.11,21.59,15.25,45.87,12.31,72.15-2.85,25.42-13.48,52.48-31.59,80.44-16.1,24.85-39.88,49.82-70.73,74.27l15.47,116.62Z"/><path d="M173.81,405.61,159.65,186.79l-21.79-7.26,7.7-152.91,6.17-2.29C177.32,14.82,202,10,225.23,10c3.21,0,6.45.09,9.61.28,26.21,1.52,49.33,8,68.73,19.36a114.86,114.86,0,0,1,45,47.07c10.19,19.81,14,42.17,11.26,66.46-2.67,23.86-12.78,49.47-30,76.12-16.28,25.12-40.82,50.45-73,75.35l14.72,111Z"/><path class="cls-2" d="M260.08,395.61h-76.9l-14-216.18-21-7,7-138.74q41.94-15.59,79.05-13.44t64.26,18a104.48,104.48,0,0,1,41.14,43q14,27.15,10.21,60.76t-28.5,71.79Q296.65,252,246.1,290.21Zm-21-216.18q8.05-2.67,11.83-11.82a53.43,53.43,0,0,0,3.76-20.44,64.2,64.2,0,0,0-3.76-21.78q-3.78-10.48-11.83-15.86Z"/><path class="cls-1" d="M473.43,417.83l.73,10.95H369.4l5-175.6-10.19-5.1V122.52l13.11-4.81c20.48-7.5,40.36-11.31,59.09-11.31.86,0,1.72,0,2.57,0,19.93.37,37.89,4.34,53.37,11.8A103.13,103.13,0,0,1,531.5,150.6,95.23,95.23,0,0,1,549.4,199c1.54,17.37-1.46,36.09-8.9,55.63-5.61,14.71-14.33,29.71-26,44.69l60.77,76.22-86.79,69.43Z"/><path d="M460.47,374l3,44.78H379.69l4.9-171.69-10.36-5.19V129.51l6.56-2.41c19.37-7.1,38.09-10.7,55.64-10.7.8,0,1.6,0,2.39,0,18.48.34,35,4,49.22,10.81a93.35,93.35,0,0,1,35.38,29.25,85.45,85.45,0,0,1,16,43.35c1.4,15.85-1.39,33.06-8.29,51.19-6,15.77-15.9,32-29.43,48.22l59.54,74.66L491.5,429.72Z"/><path class="cls-2" d="M494.48,414.53l-47-84.37,5.28,78.62H390L394.77,241l-10.54-5.27V136.49Q413,126,438.64,126.42t45.06,9.83a82.82,82.82,0,0,1,31.63,26.13,75.18,75.18,0,0,1,14.15,38.35q1.9,21.57-7.67,46.74T488.73,299l58.48,73.34Zm-47-163q5.76,0,9.35-5.75a30.62,30.62,0,0,0,4.32-13.66,32.55,32.55,0,0,0-2.64-15.82,22.64,22.64,0,0,0-11-11.75Z"/><polygon class="cls-1" points="572.17 438.29 561.44 166.85 679.29 159.71 663.99 438.29 572.17 438.29"/><polygon points="581.78 428.29 571.82 176.24 668.69 170.37 654.52 428.29 581.78 428.29"/><path class="cls-2" d="M582.2,185.63l75.89-4.6-13,237.26H591.4Z"/><polygon class="cls-1" points="803.23 403.42 803.23 416.49 677.21 423.83 700.33 122.68 786.79 114.89 813.96 187.34 843.43 122.21 929.69 114.44 953.01 423.76 826.1 416.74 818.69 432.54 803.23 403.42"/><polygon points="709.66 131.88 780.1 125.53 813.09 213.51 850.13 131.65 920.48 125.31 942.18 413.14 831.86 407.05 834.08 376.18 818.14 410.18 793.23 363.27 793.23 407.06 688.06 413.18 709.66 131.88"/><path class="cls-2" d="M931.35,402.53l-88.79-4.91,5.36-74.51-30.34,64.7-34.35-64.7v74.51l-84.33,4.91L719,141.09l54.43-4.91,38.82,103.5,44.61-98.59,54.43-4.91Z"/><polygon class="cls-1" points="940.8 409.55 989.35 85.05 1098.82 92.68 1159.76 416.38 1058.94 416.38 1058.94 417.83 940.8 409.55"/><polygon points="952.3 400.33 997.87 95.67 1090.42 102.12 1147.7 406.38 1051.12 406.38 1048.94 373.18 1048.94 407.1 952.3 400.33"/><path class="cls-2" d="M1082,111.56l53.62,284.82h-75.16L1055.22,316l-16.28,5.74v74.68l-75.15-5.27,42.6-284.82Zm-43.08,145h16.28l-11-43.08Z"/><polygon class="cls-1" points="1165.1 29.29 1306.93 29.29 1288.38 243.97 1370.72 224.84 1353.61 394.41 1157.97 417.43 1165.1 29.29"/><polygon points="1174.92 39.29 1296.03 39.29 1277.23 256.83 1359.37 237.74 1344.46 385.42 1168.18 406.16 1174.92 39.29"/><path class="cls-2" d="M1285.12,49.29l-19,220.4,81.92-19-12.69,125.77-156.93,18.47,6.35-345.6Z"/><path class="cls-1" d="M31.24,750.15,19.2,564,0,557.56,7.28,413.13l12.34-4.59c22.71-8.44,44.77-12.72,65.55-12.72,2.93,0,5.86.09,8.73.25,23.77,1.38,44.87,7.36,62.7,17.77A107.57,107.57,0,0,1,198.72,458c9.6,18.65,13.18,39.59,10.65,62.24-2.44,21.77-11.51,44.9-26.94,68.73C169,609.61,149.38,630.37,124,650.69l13.19,99.46Z"/><path d="M40.62,740.15,28.74,556.6l-18.37-6.12,6.56-130.27,6.18-2.29c21.59-8,42.47-12.1,62.06-12.1,2.73,0,5.47.08,8.15.24,22.19,1.29,41.78,6.81,58.24,16.42a97.73,97.73,0,0,1,38.27,40c8.68,16.87,11.91,35.89,9.6,56.55C197.16,539.3,188.62,561,174,583.48c-13.59,21-34,42.11-60.72,62.88l12.44,93.79Z"/><path class="cls-3" d="M114.34,730.14H50l-11.7-180.9-17.55-5.85,5.85-116.1Q61.69,414.24,92.74,416t53.78,15.08a87.42,87.42,0,0,1,34.42,36q11.7,22.72,8.55,50.85T165.64,578q-20.7,32-63,63.9ZM96.79,549.24q6.75-2.25,9.9-9.9a44.53,44.53,0,0,0,3.15-17.1A53.51,53.51,0,0,0,106.69,504a25.86,25.86,0,0,0-9.9-13.28Z"/><path class="cls-1" d="M303.53,739.79l.32,4.67H204.09l4.64-162.21-9.35-4.67V459.93l13.12-4.81c19-7,37.5-10.5,54.91-10.5.81,0,1.61,0,2.4,0,18.57.35,35.32,4.06,49.78,11a96.42,96.42,0,0,1,36.6,30.28A89.24,89.24,0,0,1,373,531.24c1.44,16.22-1.35,33.68-8.29,51.9-5.09,13.36-12.93,27-23.36,40.54l56.14,70.4-82.58,66.07Z"/><path d="M290.57,696l2.58,38.51H214.38l4.52-158.3-9.52-4.76V466.91l6.56-2.4c17.91-6.56,35.23-9.89,51.47-9.89.75,0,1.48,0,2.22,0,17.12.32,32.47,3.7,45.62,10a86.66,86.66,0,0,1,32.86,27.16A79.48,79.48,0,0,1,363,532.12c1.3,14.71-1.28,30.67-7.67,47.46-5.51,14.45-14.51,29.25-26.81,44.1l54.89,68.83L317.85,745Z"/><path class="cls-3" d="M320.84,729.76l-43.23-77.64,4.85,72.34H224.67l4.41-154.39-9.7-4.86V473.9q26.46-9.69,50.07-9.26t41.46,9a76.34,76.34,0,0,1,29.12,24A69.21,69.21,0,0,1,353,533q1.75,19.86-7.06,43t-30.44,47.42l53.82,67.5Zm-43.23-150q5.29,0,8.6-5.29a28.25,28.25,0,0,0,4-12.57,29.89,29.89,0,0,0-2.43-14.56,20.86,20.86,0,0,0-10.14-10.81Z"/><polygon class="cls-1" points="380.55 753.15 369.82 481.7 487.68 474.56 472.37 753.15 380.55 753.15"/><polygon points="390.17 743.14 380.2 491.09 477.07 485.22 462.91 743.14 390.17 743.14"/><path class="cls-3" d="M390.58,500.48l75.89-4.6-13,237.26H399.78Z"/><polygon class="cls-1" points="473.23 755.15 496.2 445.29 681.63 445.29 687.25 755.15 473.23 755.15"/><polygon points="598.24 743.78 597.06 741.4 597.06 743.78 485.47 743.78 506.76 456.66 579.02 456.66 589.14 482.02 589.14 456.66 670.47 456.66 675.67 743.78 598.24 743.78"/><path class="cls-3" d="M571.32,468l29.19,73.18V468h58.8l4.79,264.4H605.3l-19.6-39.64v39.64h-88L517.31,468Z"/><polygon class="cls-1" points="732.74 755.15 747.64 568.69 686.97 573.67 694.53 451.23 907.87 445.05 900.49 571.85 850.09 571.85 850.09 755.15 732.74 755.15"/><polygon points="743.57 745.14 758.55 557.76 697.66 562.76 703.95 460.96 897.25 455.36 891.05 561.85 840.09 561.85 840.09 745.14 743.57 745.14"/><path class="cls-3" d="M881.62,551.85H830.09V735.14H754.4l15.05-188.31-61.1,5,5-81.16,173.26-5Z"/><polygon class="cls-1" points="918.52 755.15 905.85 434.84 1039.65 426.73 1021.61 755.15 918.52 755.15"/><polygon points="928.13 745.14 916.23 444.23 1029.05 437.39 1012.14 745.14 928.13 745.14"/><path class="cls-3" d="M926.61,453.62l91.84-5.56-15.77,287.08H937.74Z"/><polygon class="cls-1" points="1032.15 755.15 1057.49 413.29 1257.83 413.29 1264.02 755.15 1032.15 755.15"/><polygon points="1170.31 745.14 1164.14 732.68 1164.14 745.14 1042.92 745.14 1066.78 423.29 1144.51 423.29 1161.05 464.76 1161.05 423.29 1248.01 423.29 1253.84 745.14 1170.31 745.14"/><path class="cls-3" d="M1137.73,433.29l33.32,83.55V433.29h67.13l5.47,301.85h-67.13l-22.38-45.25v45.25H1053.69l22.38-301.85Z"/><path class="cls-1" d="M1417.89,769.15a130.77,130.77,0,0,1-62.2-15.42,155.33,155.33,0,0,1-48.62-40.64,196.88,196.88,0,0,1-31.5-57.83A208.41,208.41,0,0,1,1264,586a199.9,199.9,0,0,1,11.59-68.12c7.7-21.33,18.38-40.23,31.74-56.17a152.08,152.08,0,0,1,48.78-38.64,136.77,136.77,0,0,1,61.74-14.38c30.82,0,59.26,9.26,84.51,27.52,24.68,17.87,43.85,42.05,57,71.88l9.28,21.08-6.06,1.7,2.62,7.29c3.83,10.63,6,19.7,6.71,27.73.58,6.76.88,13.53.88,20.11v30.83l-.23,1.49a192.41,192.41,0,0,1-18.76,58.89,188.3,188.3,0,0,1-34.33,47.71,156.14,156.14,0,0,1-46.78,32.37A133.52,133.52,0,0,1,1417.89,769.15Z"/><path d="M1417.89,759.15a121,121,0,0,1-57.5-14.24,145.48,145.48,0,0,1-45.5-38A187.07,187.07,0,0,1,1285,652a198.36,198.36,0,0,1-11-66,189.77,189.77,0,0,1,11-64.72c7.3-20.22,17.39-38.11,30-53.15A142.14,142.14,0,0,1,1360.62,432a126.87,126.87,0,0,1,57.27-13.32,131.65,131.65,0,0,1,78.64,25.63c23.22,16.8,41.29,39.61,53.69,67.8l4.63,10.53-43.69,12.29h42.26l2.38,6.61c3.53,9.8,5.54,18,6.16,25.2.55,6.47.83,12.95.83,19.25v30.08l-.11.74a182.43,182.43,0,0,1-17.78,55.84,178.12,178.12,0,0,1-32.49,45.18,146,146,0,0,1-43.79,30.32A123.65,123.65,0,0,1,1417.89,759.15Zm-17.32-145.56a48.55,48.55,0,0,0,8.12,5.4,32.64,32.64,0,0,0,15.6,3.91c4,0,8.79-1.92,14.35-5.72l.16-.11Zm-9.75-71c-6.26,8.14-9.32,18.55-9.32,31.64A46.63,46.63,0,0,0,1385,592a58,58,0,0,0,5.81,10.8Zm55.57-7.69a14.78,14.78,0,0,0-6.13-4.84c-6-2.63-11.35-4-16-4a40,40,0,0,0-25.83,8.8Z"/><path class="cls-3" d="M1552,567.58q.81,9.33.8,18.4V615.3A171.8,171.8,0,0,1,1536,668.09a167.68,167.68,0,0,1-30.66,42.66,135.53,135.53,0,0,1-40.8,28.26,113.09,113.09,0,0,1-46.65,10.13,110.41,110.41,0,0,1-52.79-13.06,135,135,0,0,1-42.4-35.46q-17.87-22.39-28.26-52A187.65,187.65,0,0,1,1284.05,586a179.29,179.29,0,0,1,10.39-61.33q10.41-28.78,28.26-50.12a131.63,131.63,0,0,1,42.4-33.59,116.3,116.3,0,0,1,52.79-12.27q40,0,72.78,23.73t50.39,63.72l-81.58,22.93q-4.27-13.32-15.2-18.13t-20-4.8A50.46,50.46,0,0,0,1387,531.85q-15.48,15.74-15.46,42.4a56.23,56.23,0,0,0,4.26,21.59,66.57,66.57,0,0,0,11.47,18.66A57.69,57.69,0,0,0,1404,627.83a42.67,42.67,0,0,0,20.27,5.07q9.06,0,20-7.46t15.2-16.54l-58.66-5.33V544.92h145.57Q1551.19,558.25,1552,567.58Z"/><polygon points="81.61 362.67 44.63 362.67 44.63 369.76 34.32 369.76 34.32 344.65 44.63 344.65 44.63 351.74 81.61 351.74 81.61 362.67"/><path class="cls-1" d="M42.56,360.6v7.08H36.39V346.73h6.17v7.09h37v6.78Z"/><path d="M82.23,333.91c0,3.91-1.18,7-3.5,9.16s-5.45,3.21-9.42,3.21H46.63c-4,0-7.16-1.08-9.43-3.21s-3.5-5.25-3.5-9.16,1.18-7,3.5-9.16,5.45-3.21,9.43-3.21H69.31c4,0,7.15,1.08,9.42,3.21S82.23,330,82.23,333.91Zm-38.21,0c0,.74,0,1.44,2.17,1.44H69.74c2.18,0,2.18-.7,2.18-1.44s0-1.44-2.18-1.44H46.19C44,332.47,44,333.17,44,333.91Z"/><path class="cls-1" d="M77.32,341.55q-2.83,2.65-8,2.65H46.63q-5.19,0-8-2.65t-2.83-7.64q0-5,2.83-7.64t8-2.65H69.31q5.18,0,8,2.65t2.83,7.64Q80.15,338.91,77.32,341.55ZM69.74,330.4H46.19q-4.24,0-4.25,3.51t4.25,3.51H69.74q4.24,0,4.25-3.51T69.74,330.4Z"/><path d="M81.61,321.13H34.32V309.07c0-3.95,1.13-7,3.37-9.1s5.35-3.08,9.37-3.08h4.25c4,0,7.17,1,9.36,3.08s3.38,5.15,3.38,9.1v1.13H81.61ZM53.73,309.07c0-.22,0-.76-.23-.95a3.21,3.21,0,0,0-1.76-.3H46.63a3.13,3.13,0,0,0-1.76.3c-.22.19-.24.73-.24.95v1.13h9.1Z"/><path class="cls-1" d="M36.39,319.06v-10c0-3.37.91-5.89,2.72-7.58s4.45-2.52,8-2.52h4.25q5.23,0,7.95,2.52c1.81,1.69,2.71,4.21,2.71,7.58v3.21H79.54v6.78Zm19.42-10a3.16,3.16,0,0,0-.93-2.49,4.63,4.63,0,0,0-3.14-.84H46.63a4.68,4.68,0,0,0-3.15.84,3.19,3.19,0,0,0-.92,2.49v3.21H55.81Z"/><path d="M82.23,275.79c0,3.88-1.17,6.92-3.48,9S73.32,288,69.31,288H46.63c-4,0-7.2-1.05-9.45-3.13s-3.48-5.17-3.48-9,1.17-6.91,3.48-9,5.43-3.14,9.45-3.14H52.4v10.56H46.19c-2.17,0-2.17.7-2.17,1.44s0,1.44,2.17,1.44h6.93V263.61H69.31c4,0,7.19,1.06,9.45,3.14S82.23,271.92,82.23,275.79ZM69.8,277.05c2.12,0,2.12-.7,2.12-1.44s0-1.44-2.12-1.44H63.43v2.88Z"/><path class="cls-1" d="M77.35,283.31q-2.8,2.6-8,2.59H46.63q-5.25,0-8.05-2.59t-2.8-7.52q0-4.92,2.8-7.52t8.05-2.58h3.69v6.41H46.19q-4.24,0-4.25,3.51t4.25,3.51H69.8q4.19,0,4.19-3.51T69.8,272.1H61.36v3.38H55.19v-9.79H69.31q5.23,0,8,2.58t2.8,7.52Q80.15,280.72,77.35,283.31Z"/><path d="M82.23,251.45c0,3.87-1.17,6.92-3.48,9s-5.43,3.14-9.44,3.14h-35V252.7H69.8c1.38,0,1.77-.32,1.81-.35s.31-.28.31-1-.23-1-.31-1-.43-.36-1.81-.36H34.32V239.27h35c4,0,7.19,1,9.45,3.14S82.23,247.57,82.23,251.45Z"/><path class="cls-1" d="M77.35,259c-1.87,1.72-4.55,2.59-8,2.59H36.39v-6.78H69.8a4.65,4.65,0,0,0,3.2-.9,3.79,3.79,0,0,0,0-5.11,4.65,4.65,0,0,0-3.2-.89H36.39v-6.54H69.31c3.49,0,6.17.87,8,2.59s2.8,4.23,2.8,7.52S79.22,257.24,77.35,259Z"/><path d="M82.23,226.74c0,3.91-1.18,7-3.5,9.15s-5.45,3.21-9.42,3.21H46.63c-4,0-7.16-1.08-9.43-3.21s-3.5-5.24-3.5-9.15,1.18-7,3.5-9.16,5.45-3.21,9.43-3.21H69.31c4,0,7.15,1.08,9.42,3.21S82.23,222.83,82.23,226.74Zm-38.21,0c0,.74,0,1.44,2.17,1.44H69.74c2.18,0,2.18-.7,2.18-1.44s0-1.44-2.18-1.44H46.19C44,225.3,44,226,44,226.74Z"/><path class="cls-1" d="M77.32,234.38q-2.83,2.66-8,2.65H46.63q-5.19,0-8-2.65t-2.83-7.64q0-5,2.83-7.65c1.89-1.76,4.56-2.65,8-2.65H69.31c3.45,0,6.12.89,8,2.65s2.83,4.32,2.83,7.65S79.21,232.61,77.32,234.38Zm-7.58-11.16H46.19q-4.24,0-4.25,3.52t4.25,3.51H69.74q4.24,0,4.25-3.51T69.74,223.22Z"/><path d="M81.61,204.1H34.32V192c0-3.95,1.13-7,3.37-9.1s5.35-3.08,9.37-3.08h4.25c4,0,7.17,1,9.36,3.08s3.38,5.15,3.38,9.1v1.13H81.61ZM53.73,192a1.59,1.59,0,0,0-.23-1,3.3,3.3,0,0,0-1.76-.29H46.63a3.22,3.22,0,0,0-1.76.29c-.22.2-.24.74-.24,1v1.13h9.1Z"/><path class="cls-1" d="M36.39,202V192q0-5.06,2.72-7.58t8-2.53h4.25q5.23,0,7.95,2.53T62,192v3.2H79.54V202Zm19.42-10a3.19,3.19,0,0,0-.93-2.5,4.69,4.69,0,0,0-3.14-.83H46.63a4.74,4.74,0,0,0-3.15.83,3.22,3.22,0,0,0-.92,2.5v3.2H55.81Z"/><path d="M81.61,165.71l-1.38.49a12.24,12.24,0,0,1-2.39.59,29.64,29.64,0,0,1-3.6.14H66.35c-2.11,0-2.72.41-2.82.49a2.44,2.44,0,0,0-.41,1.69v.27H81.61v10.93H34.32V168.19c0-4.05,1-7.12,3-9.12s5-3,9-3H49c4.2,0,6.81,1.22,8.44,2.78a7.37,7.37,0,0,1,2.36-1.65A17.16,17.16,0,0,1,66.72,156H74.3c1.16,0,2.09,0,2.76-.11a5.44,5.44,0,0,0,1.63-.45l2.92-1.3ZM52.81,169a2.3,2.3,0,0,0-.42-1.56c-.07-.08-.52-.43-2.07-.43H47a3.66,3.66,0,0,0-2.1.38c-.22.18-.26.7-.26,1v1h8.18Z"/><path class="cls-1" d="M36.39,178.23v-10c0-3.49.82-6,2.44-7.64s4.12-2.41,7.49-2.41H49q6.72,0,8.5,4.44h.13a5.29,5.29,0,0,1,3-3.48,15.15,15.15,0,0,1,6.1-1H74.3a29.82,29.82,0,0,0,3-.12,7.42,7.42,0,0,0,2.25-.62v6.9a9.58,9.58,0,0,1-2,.5,30.24,30.24,0,0,1-3.32.12H66.35c-2,0-3.35.32-4.13,1a4,4,0,0,0-1.17,3.29v2.35H79.54v6.77ZM54.88,169a4.06,4.06,0,0,0-1-3.05,5,5,0,0,0-3.52-1H47a5.46,5.46,0,0,0-3.38.83,3.15,3.15,0,0,0-1,2.62v3.09H54.88Z"/><polygon points="81.61 155.47 34.32 155.47 34.32 132.83 44.63 132.83 44.63 144.54 51.88 144.54 51.88 135.24 62.2 135.24 62.2 144.54 71.3 144.54 71.3 132.83 81.61 132.83 81.61 155.47"/><path class="cls-1" d="M36.39,153.4V134.91h6.17v11.71H54v-9.31h6.16v9.31H73.37V134.91h6.17V153.4Z"/><path d="M82.23,122.09c0,3.88-1.18,6.91-3.49,9s-5.43,3.06-9.43,3.06H64.77V123.59h5c2.12,0,2.12-.7,2.12-1.44s-.24-1-.32-1.06-.5-.38-1.92-.38a7.09,7.09,0,0,0-3.72.94,21.3,21.3,0,0,0-4.46,4.14,29,29,0,0,1-7.24,6.31A15.75,15.75,0,0,1,46.5,134c-3.93,0-7.07-1.05-9.32-3.13s-3.48-5.17-3.48-9,1.18-6.84,3.5-8.91,5.43-3,9.43-3h3.86v10.56h-4.3c-1.38,0-1.82.3-1.89.37s-.28.24-.28.94,0,1.32,2,1.32a6,6,0,0,0,3.28-.95,22,22,0,0,0,4.46-4.2,27.2,27.2,0,0,1,7.31-6.32,17,17,0,0,1,8.06-1.85c4.06,0,7.27,1.07,9.55,3.17S82.23,118.18,82.23,122.09Z"/><path class="cls-1" d="M77.35,129.55q-2.8,2.52-8,2.52H66.84v-6.41h3q4.19,0,4.19-3.51a3.3,3.3,0,0,0-1-2.62,5,5,0,0,0-3.29-.89,9.17,9.17,0,0,0-4.78,1.23,22.59,22.59,0,0,0-5,4.56,27.37,27.37,0,0,1-6.69,5.86A13.62,13.62,0,0,1,46.5,132q-5.11,0-7.92-2.59t-2.8-7.52c0-3.24.93-5.7,2.8-7.36s4.55-2.5,8.05-2.5h1.78v6.41H46.19a5,5,0,0,0-3.23.86,3.14,3.14,0,0,0-1,2.53q0,3.39,4.13,3.39a8.19,8.19,0,0,0,4.38-1.26,24.15,24.15,0,0,0,4.93-4.59,25.3,25.3,0,0,1,6.71-5.86,14.92,14.92,0,0,1,7.09-1.6q5.31,0,8.14,2.62c1.89,1.75,2.83,4.28,2.83,7.61S79.22,127.86,77.35,129.55Z"/><polygon points="81.61 110.05 34.32 110.05 34.32 87.41 44.63 87.41 44.63 99.12 51.88 99.12 51.88 89.82 62.2 89.82 62.2 99.12 71.3 99.12 71.3 87.41 81.61 87.41 81.61 110.05"/><path class="cls-1" d="M36.39,108V89.49h6.17V101.2H54V91.89h6.16v9.31H73.37V89.49h6.17V108Z"/><polygon points="81.61 72.91 63.89 77.49 81.61 77.49 81.61 87.68 34.32 87.68 34.32 75.49 46.2 72.46 34.32 72.46 34.32 62.27 81.61 62.27 81.61 72.91"/><path class="cls-1" d="M36.39,85.6V77.1l25.83-6.59v-.13H36.39v-6H79.54v7L48,79.44v.13h31.5v6Z"/><polygon points="81.61 56.06 44.63 56.06 44.63 63.15 34.32 63.15 34.32 38.05 44.63 38.05 44.63 45.14 81.61 45.14 81.61 56.06"/><path class="cls-1" d="M42.56,54v7.09H36.39v-21h6.17v7.09h37V54Z"/><path d="M82.23,28c0,3.89-1.18,6.92-3.49,9s-5.43,3.06-9.43,3.06H64.77V29.54h5c2.12,0,2.12-.7,2.12-1.44s-.24-1-.32-1.06-.5-.37-1.92-.37a7,7,0,0,0-3.72.94,20.76,20.76,0,0,0-4.46,4.14,28.76,28.76,0,0,1-7.24,6.3A15.75,15.75,0,0,1,46.5,40c-3.93,0-7.07-1.06-9.32-3.14s-3.48-5.17-3.48-9,1.18-6.85,3.5-8.92,5.43-3,9.43-3h3.86V26.42h-4.3a3.1,3.1,0,0,0-1.89.37c-.08.06-.28.24-.28.94s0,1.32,2,1.32a6,6,0,0,0,3.28-.95,22.14,22.14,0,0,0,4.46-4.19,27.08,27.08,0,0,1,7.31-6.33,17.08,17.08,0,0,1,8.06-1.84c4.06,0,7.27,1.06,9.55,3.17S82.23,24.13,82.23,28Z"/><path class="cls-1" d="M77.35,35.5c-1.87,1.68-4.55,2.53-8,2.53H66.84V31.62h3Q74,31.62,74,28.1a3.3,3.3,0,0,0-1-2.62,5,5,0,0,0-3.29-.89,9.17,9.17,0,0,0-4.78,1.23,23.11,23.11,0,0,0-5,4.56,27.37,27.37,0,0,1-6.69,5.86A13.62,13.62,0,0,1,46.5,37.9q-5.11,0-7.92-2.59c-1.87-1.72-2.8-4.23-2.8-7.51s.93-5.7,2.8-7.37,4.55-2.5,8.05-2.5h1.78v6.41H46.19a4.91,4.91,0,0,0-3.23.87,3.12,3.12,0,0,0-1,2.52q0,3.39,4.13,3.39a8.19,8.19,0,0,0,4.38-1.26,24.15,24.15,0,0,0,4.93-4.59,25.3,25.3,0,0,1,6.71-5.86,15,15,0,0,1,7.09-1.6c3.54,0,6.25.88,8.14,2.62s2.83,4.28,2.83,7.61S79.22,33.82,77.35,35.5Z"/></g></g></svg>